<svg width="88" height="88" viewBox="0 0 88 88" fill="none" xmlns="http://www.w3.org/2000/svg">
<path d="M34.3943 39.2322V38.8255C34.3943 37.7948 35.2241 36.94 36.2937 36.8689L44.0841 36.3516L54.8575 52.1336V38.2822L52.0845 37.9144V37.7213C52.0845 36.6785 52.9333 35.818 54.0164 35.7628L61.1049 35.4016V36.4163C61.1049 36.8927 60.7488 37.3002 60.2607 37.3823L58.5549 37.6693V60.1012L56.4141 60.8336C54.6257 61.4455 52.6346 60.7905 51.6108 59.2536L41.1516 43.5531V58.5384L44.3709 59.1513L44.3261 59.4483C44.1856 60.3788 43.378 61.0825 42.4011 61.1257L34.3943 61.4803C34.2885 60.4797 35.0423 59.5845 36.0823 59.4758L37.1355 59.3658V39.3854L34.3943 39.2322Z" fill="#242424"/>
<path fill-rule="evenodd" clip-rule="evenodd" d="M53.3641 17.9889L21.2647 20.169C19.3419 20.2996 17.8515 21.8373 17.8515 23.6905V54.7487C17.8515 56.4899 18.454 58.1817 19.5642 59.5575L26.4853 68.1346C27.6043 69.5214 29.3653 70.285 31.1872 70.1734L66.8139 67.9918C68.6399 67.88 70.0614 66.4235 70.0614 64.6644V29.3542C70.0614 28.2659 69.5089 27.2461 68.5814 26.6222L57.3033 19.0368C56.154 18.2638 54.7633 17.8938 53.3641 17.9889ZM22.8564 24.175C22.41 23.8461 22.6224 23.1611 23.1833 23.1211L53.58 20.9522C54.5485 20.8831 55.5108 21.1484 56.2941 21.7005L62.393 25.9989C62.6245 26.1621 62.5159 26.5144 62.2292 26.5299L30.0392 28.2714C29.065 28.3241 28.1034 28.0394 27.3289 27.469L22.8564 24.175ZM28.5294 33.7311C28.5294 32.6908 29.3742 31.8315 30.4545 31.773L64.4885 29.9291C65.5414 29.8721 66.4278 30.6776 66.4278 31.6915V62.2664C66.4278 63.3048 65.5859 64.1632 64.5077 64.2242L30.6892 66.1384C29.5175 66.2048 28.5294 65.3091 28.5294 64.1806V33.7311Z" fill="#242424"/>
</svg>
