<svg width="88" height="88" viewBox="0 0 88 88" fill="none" xmlns="http://www.w3.org/2000/svg">
<path d="M49.5575 49.6023C46.0154 50.9353 42.0461 50.9377 38.5039 49.6031C37.1693 46.0647 37.1689 42.0961 38.5018 38.5571C42.0431 37.2218 46.0164 37.2216 49.5577 38.5569C50.8918 42.0948 50.8912 46.0644 49.5575 49.6023ZM69.7893 39.7284H54.5415L65.3227 28.953C63.6307 26.5776 61.5418 24.491 59.1651 22.7999L48.383 33.5753V18.3368C45.5055 17.853 42.5543 17.8538 39.6767 18.3368V33.5753L28.8947 22.7999C26.5185 24.4898 24.429 26.5793 22.7368 28.953L33.5197 39.7284H18.272C17.8957 42.6905 17.7734 45.4742 18.272 48.4302H33.5199L22.7371 59.2056C24.4333 61.5845 26.5143 63.6643 28.8947 65.3595L39.6767 54.5833V69.8226C42.5546 70.3046 45.5049 70.3048 48.3828 69.8226V54.5833L59.1659 65.3595C61.5436 63.6668 63.6289 61.5819 65.3227 59.2056L54.5398 48.4302H69.7893C70.2732 45.5569 70.2732 42.6017 69.7893 39.7284Z" fill="#FF4A00"/>
</svg>
