<svg width="88" height="88" viewBox="0 0 88 88" fill="none" xmlns="http://www.w3.org/2000/svg">
<path d="M34.4617 26.8138C34.4617 27.4198 34.4132 28.4298 33.8307 29.0864C33.1997 29.6924 32.229 29.7429 31.6465 29.7429C28.3699 29.7429 23.8248 28.9076 20.7257 30.1974C25.4554 21.5876 34.6181 15.8665 34.5588 16.3598C34.1222 19.7667 34.4617 23.387 34.4617 26.8138ZM44.2662 65.9024C44.2662 61.7108 47.5668 58.2766 51.6439 58.2766C52.8573 58.2766 53.8281 59.2867 53.8281 60.5492C53.8281 61.4077 53.3912 62.1148 52.7117 62.5188C51.9716 62.9808 50.9466 62.7653 50.2848 63.3773C49.7995 63.7813 49.4112 64.4379 49.4112 65.1449C49.4112 65.9024 49.7024 66.6095 50.1878 67.1145C51.0614 68.0235 52.2263 68.5285 53.4883 68.5285C56.7888 68.5285 59.4584 65.7509 59.4584 62.3168C59.4584 59.2362 57.4684 56.509 54.8473 55.297C50.8696 53.2276 44.7836 54.4053 44.3148 47.9237C43.5852 51.3519 41.9758 57.4686 37.6166 57.4686C24.4481 58.2825 19.7017 47.4613 18.7842 36.0052C18.7842 33.5306 20.2403 31.864 22.0847 31.6115C25.3852 31.6115 28.6858 31.6115 31.9863 31.6115C33.6851 31.6115 34.6559 31.157 35.2868 30.5509C36.112 29.7429 36.3061 28.5813 36.3061 27.2178C36.3061 23.6658 36.3061 18.2036 36.3061 16.5618C36.3061 14.4177 38.1505 13.1277 40.5289 13.1277C41.9299 13.1277 43.2448 13.1776 44.606 13.5317C47.5668 14.2892 48.1977 17.4204 48.1977 17.4204C48.1977 17.4204 53.7795 18.4304 56.5947 18.9354C59.2642 19.4405 65.8653 19.895 67.1273 26.8138C70.088 43.2775 68.2922 59.2362 68.1465 59.2362C66.0594 74.7908 53.6339 74.0333 53.6339 74.0333C49.1172 74.0333 44.2662 70.9062 44.2662 65.9024ZM58.8274 39.0858C57.2257 38.9343 55.8666 39.5908 55.3813 40.8534C54.6934 42.6425 61.7882 44.1303 61.7882 41.6614C61.594 40.2473 60.4291 39.2878 58.8274 39.0858Z" fill="#00A82D"/>
</svg>
