<svg width="88" height="88" viewBox="0 0 88 88" fill="none" xmlns="http://www.w3.org/2000/svg">
<path d="M66.9981 41.9044C70.0014 41.9044 72.4361 39.4697 72.4361 36.4663C72.4361 33.463 70.0012 31.0283 66.9978 31.0283C63.9942 31.0283 61.5591 33.4632 61.5591 36.4668V41.9044H66.9981ZM51.7697 41.9044C54.7733 41.9044 57.2083 39.4695 57.2083 36.4659V21.2389C57.2083 18.2353 54.7733 15.8004 51.7697 15.8004C48.7661 15.8004 46.3312 18.2353 46.3312 21.2389V36.4659C46.3312 39.4695 48.7661 41.9044 51.7697 41.9044Z" fill="#2EB67D"/>
<path d="M21.3147 46.255C18.3114 46.255 15.8767 48.6897 15.8767 51.6931C15.8767 54.6964 18.3116 57.1311 21.315 57.1311C24.3186 57.1311 26.7537 54.6962 26.7537 51.6926V46.255H21.3147ZM36.5431 46.255C33.5395 46.255 31.1045 48.6899 31.1045 51.6935V66.9205C31.1045 69.9241 33.5395 72.359 36.5431 72.359C39.5467 72.359 41.9816 69.9241 41.9816 66.9205V51.6935C41.9816 48.6899 39.5467 46.255 36.5431 46.255Z" fill="#E01E5A"/>
<path d="M46.3327 66.9214C46.3327 69.9247 48.7674 72.3594 51.7707 72.3594C54.7741 72.3594 57.2088 69.9245 57.2088 66.9211C57.2088 63.9175 54.7739 61.4824 51.7703 61.4824L46.3327 61.4824L46.3327 66.9214ZM46.3327 51.693C46.3327 54.6966 48.7676 57.1316 51.7712 57.1316L66.9982 57.1316C70.0018 57.1316 72.4367 54.6966 72.4367 51.693C72.4367 48.6894 70.0018 46.2545 66.9982 46.2545L51.7712 46.2545C48.7676 46.2545 46.3327 48.6894 46.3327 51.693Z" fill="#ECB22E"/>
<path d="M41.9801 21.2371C41.9801 18.2337 39.5454 15.799 36.5421 15.799C33.5387 15.799 31.104 18.2339 31.104 21.2373C31.104 24.2409 33.5389 26.676 36.5425 26.676L41.9801 26.676L41.9801 21.2371ZM41.9801 36.4654C41.9801 33.4618 39.5452 31.0269 36.5416 31.0269L21.3147 31.0269C18.311 31.0269 15.8761 33.4618 15.8761 36.4654C15.8761 39.469 18.311 41.9039 21.3147 41.9039L36.5416 41.9039C39.5452 41.9039 41.9801 39.469 41.9801 36.4654Z" fill="#36C5F0"/>
</svg>
