<svg width="88" height="88" viewBox="0 0 88 88" fill="none" xmlns="http://www.w3.org/2000/svg">
<path fill-rule="evenodd" clip-rule="evenodd" d="M44.2165 43.5839C44.2165 38.3776 48.5993 34.1571 54.0058 34.1571C59.4124 34.1571 63.7952 38.3776 63.7952 43.5839C63.7952 48.7901 59.4124 53.0107 54.0058 53.0107C48.5993 53.0107 44.2165 48.7901 44.2165 43.5839Z" fill="#1ABCFE"/>
<path fill-rule="evenodd" clip-rule="evenodd" d="M24.6384 62.4372C24.6384 57.2309 29.0212 53.0104 34.4277 53.0104H44.2171V62.4372C44.2171 67.6435 39.8342 71.864 34.4277 71.864C29.0212 71.864 24.6384 67.6435 24.6384 62.4372Z" fill="#0ACF83"/>
<path fill-rule="evenodd" clip-rule="evenodd" d="M44.2165 15.3034V34.157H54.0058C59.4124 34.157 63.7952 29.9364 63.7952 24.7302C63.7952 19.5239 59.4124 15.3034 54.0058 15.3034H44.2165Z" fill="#FF7262"/>
<path fill-rule="evenodd" clip-rule="evenodd" d="M24.6384 24.7302C24.6384 29.9364 29.0212 34.157 34.4277 34.157H44.2171V15.3034H34.4277C29.0212 15.3034 24.6384 19.5239 24.6384 24.7302Z" fill="#F24E1E"/>
<path fill-rule="evenodd" clip-rule="evenodd" d="M24.6384 43.5839C24.6384 48.7901 29.0212 53.0107 34.4277 53.0107H44.2171V34.1571H34.4277C29.0212 34.1571 24.6384 38.3776 24.6384 43.5839Z" fill="#A259FF"/>
</svg>
