<svg width="78" height="78" viewBox="0 0 78 78" fill="none" xmlns="http://www.w3.org/2000/svg">
<rect width="77.034" height="77.034" transform="translate(0.0403748 0.187744)" fill="#DEDFE3"/>
<path d="M30.0916 34.4142V34.0542C30.0916 33.1418 30.8263 32.385 31.7731 32.3221L38.6698 31.8641L48.2073 45.8356V33.5732L45.7524 33.2476V33.0767C45.7524 32.1535 46.5038 31.3917 47.4627 31.3428L53.738 31.023V31.9214C53.738 32.3431 53.4227 32.7038 52.9907 32.7765L51.4806 33.0306V52.8892L49.5854 53.5375C48.0021 54.0792 46.2394 53.4994 45.333 52.1388L36.0738 38.2394V51.5056L38.9237 52.0482L38.884 52.3112C38.7597 53.1349 38.0448 53.7579 37.1799 53.7962L30.0916 54.11C29.9979 53.2242 30.6653 52.4317 31.586 52.3355L32.5184 52.2381V34.5498L30.0916 34.4142Z" fill="#242424"/>
<path fill-rule="evenodd" clip-rule="evenodd" d="M46.8852 15.6079L18.4682 17.538C16.7661 17.6536 15.4466 19.0149 15.4466 20.6555V48.1507C15.4466 49.6922 15.98 51.1899 16.9628 52.4078L23.0899 60.001C24.0806 61.2286 25.6396 61.9046 27.2524 61.8059L58.7921 59.8745C60.4086 59.7756 61.667 58.4862 61.667 56.9289V25.6695C61.667 24.706 61.1779 23.8031 60.3568 23.2509L50.3726 16.5357C49.355 15.8513 48.1239 15.5238 46.8852 15.6079ZM19.8774 21.0844C19.4821 20.7933 19.6702 20.1868 20.1667 20.1514L47.0764 18.2313C47.9337 18.1702 48.7857 18.405 49.4791 18.8937L54.8783 22.699C55.0833 22.8435 54.9871 23.1554 54.7334 23.1691L26.2362 24.7109C25.3737 24.7575 24.5225 24.5055 23.8368 24.0005L19.8774 21.0844ZM24.8995 29.5442C24.8995 28.6233 25.6474 27.8625 26.6038 27.8107L56.7335 26.1784C57.6656 26.1279 58.4502 26.841 58.4502 27.7386V54.8059C58.4502 55.7252 57.7049 56.4852 56.7504 56.5392L26.8116 58.2338C25.7743 58.2925 24.8995 57.4996 24.8995 56.5005V29.5442Z" fill="#242424"/>
</svg>
